<svg width="32768" height="802" viewBox="0 0 32768 802" fill="none" xmlns="http://www.w3.org/2000/svg">
<rect width="2184.53" height="801.724" fill="#DECFFF"/>
<path d="M139.082 522.206C59.7106 498.709 0 528.705 0 528.705V801.534H2184.53V528.705C2184.53 528.705 2180.16 530.205 2079.31 587.696C1978.46 645.188 1725.78 574.948 1664.61 531.204C1603.45 487.461 1523.53 539.267 1446.89 554.321C1370.25 569.375 1319.44 573.086 1231.71 525.455C1143.99 477.825 1066.72 585.718 937.893 612.062C809.069 638.407 766.771 583.947 680.482 541.953C594.193 499.959 536.597 580.032 410.692 589.316C284.788 598.599 218.453 545.702 139.082 522.206Z" fill="#FFF9E2"/>
<rect x="2184.53" width="2184.53" height="801.724" fill="#DECFFF"/>
<path d="M2323.62 522.206C2244.24 498.709 2184.53 528.705 2184.53 528.705V801.534H4369.07V528.705C4369.07 528.705 4364.7 530.205 4263.84 587.696C4162.99 645.188 3910.31 574.948 3849.15 531.204C3787.98 487.461 3708.06 539.267 3631.42 554.321C3554.79 569.375 3503.97 573.086 3416.25 525.455C3328.52 477.825 3251.25 585.718 3122.43 612.062C2993.6 638.407 2951.3 583.947 2865.02 541.953C2778.73 499.959 2721.13 580.032 2595.23 589.316C2469.32 598.599 2402.99 545.702 2323.62 522.206Z" fill="#FFF9E2"/>
<rect x="4369.07" width="2184.53" height="801.724" fill="#DECFFF"/>
<path d="M4508.15 522.206C4428.78 498.709 4369.07 528.705 4369.07 528.705V801.534H6553.6V528.705C6553.6 528.705 6549.23 530.205 6448.38 587.696C6347.53 645.188 6094.85 574.948 6033.68 531.204C5972.51 487.461 5892.59 539.267 5815.96 554.321C5739.32 569.375 5688.51 573.086 5600.78 525.455C5513.05 477.825 5435.78 585.718 5306.96 612.062C5178.14 638.407 5135.84 583.947 5049.55 541.953C4963.26 499.959 4905.66 580.032 4779.76 589.316C4653.85 598.599 4587.52 545.702 4508.15 522.206Z" fill="#FFF9E2"/>
<rect x="6553.6" width="2184.53" height="801.724" fill="#DECFFF"/>
<path d="M6692.68 522.206C6613.31 498.709 6553.6 528.705 6553.6 528.705V801.534H8738.13V528.705C8738.13 528.705 8733.76 530.205 8632.91 587.696C8532.06 645.188 8279.38 574.948 8218.21 531.204C8157.05 487.461 8077.13 539.267 8000.49 554.321C7923.85 569.375 7873.04 573.086 7785.31 525.455C7697.59 477.825 7620.32 585.718 7491.49 612.062C7362.67 638.407 7320.37 583.947 7234.08 541.953C7147.79 499.959 7090.2 580.032 6964.29 589.316C6838.39 598.599 6772.05 545.702 6692.68 522.206Z" fill="#FFF9E2"/>
<rect x="8738.13" width="2184.53" height="801.724" fill="#DECFFF"/>
<path d="M8877.22 522.206C8797.84 498.709 8738.13 528.705 8738.13 528.705V801.534H10922.7V528.705C10922.7 528.705 10918.3 530.205 10817.4 587.696C10716.6 645.188 10463.9 574.948 10402.7 531.204C10341.6 487.461 10261.7 539.267 10185 554.321C10108.4 569.375 10057.6 573.086 9969.85 525.455C9882.12 477.825 9804.85 585.718 9676.03 612.062C9547.2 638.407 9504.9 583.947 9418.62 541.953C9332.33 499.959 9274.73 580.032 9148.83 589.316C9022.92 598.599 8956.59 545.702 8877.22 522.206Z" fill="#FFF9E2"/>
<rect x="10922.7" width="2184.53" height="801.724" fill="#DECFFF"/>
<path d="M11061.7 522.206C10982.4 498.709 10922.7 528.705 10922.7 528.705V801.534H13107.2V528.705C13107.2 528.705 13102.8 530.205 13002 587.696C12901.1 645.188 12648.4 574.948 12587.3 531.204C12526.1 487.461 12446.2 539.267 12369.6 554.321C12292.9 569.375 12242.1 573.086 12154.4 525.455C12066.7 477.825 11989.4 585.718 11860.6 612.062C11731.7 638.407 11689.4 583.947 11603.1 541.953C11516.9 499.959 11459.3 580.032 11333.4 589.316C11207.5 598.599 11141.1 545.702 11061.7 522.206Z" fill="#FFF9E2"/>
<rect x="13107.2" width="2184.53" height="801.724" fill="#DECFFF"/>
<path d="M13246.3 522.206C13166.9 498.709 13107.2 528.705 13107.2 528.705V801.534H15291.7V528.705C15291.7 528.705 15287.4 530.205 15186.5 587.696C15085.7 645.188 14833 574.948 14771.8 531.204C14710.6 487.461 14630.7 539.267 14554.1 554.321C14477.5 569.375 14426.6 573.086 14338.9 525.455C14251.2 477.825 14173.9 585.718 14045.1 612.062C13916.3 638.407 13874 583.947 13787.7 541.953C13701.4 499.959 13643.8 580.032 13517.9 589.316C13392 598.599 13325.7 545.702 13246.3 522.206Z" fill="#FFF9E2"/>
<rect x="15291.7" width="2184.53" height="801.724" fill="#DECFFF"/>
<path d="M15430.8 522.206C15351.4 498.709 15291.7 528.705 15291.7 528.705V801.534H17476.3V528.705C17476.3 528.705 17471.9 530.205 17371 587.696C17270.2 645.188 17017.5 574.948 16956.3 531.204C16895.2 487.461 16815.3 539.267 16738.6 554.321C16662 569.375 16611.2 573.086 16523.4 525.455C16435.7 477.825 16358.5 585.718 16229.6 612.062C16100.8 638.407 16058.5 583.947 15972.2 541.953C15885.9 499.959 15828.3 580.032 15702.4 589.316C15576.5 598.599 15510.2 545.702 15430.8 522.206Z" fill="#FFF9E2"/>
<rect x="17476.3" width="2184.53" height="801.724" fill="#DECFFF"/>
<path d="M17615.3 522.206C17536 498.709 17476.3 528.705 17476.3 528.705V801.534H19660.8V528.705C19660.8 528.705 19656.4 530.205 19555.6 587.696C19454.7 645.188 19202 574.948 19140.9 531.204C19079.7 487.461 18999.8 539.267 18923.2 554.321C18846.5 569.375 18795.7 573.086 18708 525.455C18620.3 477.825 18543 585.718 18414.2 612.062C18285.3 638.407 18243 583.947 18156.7 541.953C18070.5 499.959 18012.9 580.032 17887 589.316C17761.1 598.599 17694.7 545.702 17615.3 522.206Z" fill="#FFF9E2"/>
<rect x="19660.8" width="2184.53" height="801.724" fill="#DECFFF"/>
<path d="M19799.9 522.206C19720.5 498.709 19660.8 528.705 19660.8 528.705V801.534H21845.3V528.705C21845.3 528.705 21841 530.205 21740.1 587.696C21639.3 645.188 21386.6 574.948 21325.4 531.204C21264.2 487.461 21184.3 539.267 21107.7 554.321C21031.1 569.375 20980.2 573.086 20892.5 525.455C20804.8 477.825 20727.5 585.718 20598.7 612.062C20469.9 638.407 20427.6 583.947 20341.3 541.953C20255 499.959 20197.4 580.032 20071.5 589.316C19945.6 598.599 19879.3 545.702 19799.9 522.206Z" fill="#FFF9E2"/>
<rect x="21845.3" width="2184.53" height="801.724" fill="#DECFFF"/>
<path d="M21984.4 522.206C21905 498.709 21845.3 528.705 21845.3 528.705V801.534H24029.9V528.705C24029.9 528.705 24025.5 530.205 23924.6 587.696C23823.8 645.188 23571.1 574.948 23509.9 531.204C23448.8 487.461 23368.9 539.267 23292.2 554.321C23215.6 569.375 23164.8 573.086 23077 525.455C22989.3 477.825 22912.1 585.718 22783.2 612.062C22654.4 638.407 22612.1 583.947 22525.8 541.953C22439.5 499.959 22381.9 580.032 22256 589.316C22130.1 598.599 22063.8 545.702 21984.4 522.206Z" fill="#FFF9E2"/>
<rect x="24029.9" width="2184.53" height="801.724" fill="#DECFFF"/>
<path d="M24168.9 522.206C24089.6 498.709 24029.9 528.705 24029.9 528.705V801.534H26214.4V528.705C26214.4 528.705 26210 530.205 26109.2 587.696C26008.3 645.188 25755.6 574.948 25694.5 531.204C25633.3 487.461 25553.4 539.267 25476.8 554.321C25400.1 569.375 25349.3 573.086 25261.6 525.455C25173.9 477.825 25096.6 585.718 24967.8 612.062C24838.9 638.407 24796.6 583.947 24710.3 541.953C24624.1 499.959 24566.5 580.032 24440.6 589.316C24314.7 598.599 24248.3 545.702 24168.9 522.206Z" fill="#FFF9E2"/>
<rect x="26214.4" width="2184.53" height="801.724" fill="#DECFFF"/>
<path d="M26353.5 522.206C26274.1 498.709 26214.4 528.705 26214.4 528.705V801.534H28398.9V528.705C28398.9 528.705 28394.6 530.205 28293.7 587.696C28192.9 645.188 27940.2 574.948 27879 531.204C27817.8 487.461 27737.9 539.267 27661.3 554.321C27584.7 569.375 27533.8 573.086 27446.1 525.455C27358.4 477.825 27281.1 585.718 27152.3 612.062C27023.5 638.407 26981.2 583.947 26894.9 541.953C26808.6 499.959 26751 580.032 26625.1 589.316C26499.2 598.599 26432.9 545.702 26353.5 522.206Z" fill="#FFF9E2"/>
<rect x="28398.9" width="2184.53" height="801.724" fill="#DECFFF"/>
<path d="M28538 522.206C28458.6 498.709 28398.9 528.705 28398.9 528.705V801.534H30583.5V528.705C30583.5 528.705 30579.1 530.205 30478.2 587.696C30377.4 645.188 30124.7 574.948 30063.5 531.204C30002.4 487.461 29922.5 539.267 29845.8 554.321C29769.2 569.375 29718.4 573.086 29630.6 525.455C29542.9 477.825 29465.7 585.718 29336.8 612.062C29208 638.407 29165.7 583.947 29079.4 541.953C28993.1 499.959 28935.5 580.032 28809.6 589.316C28683.7 598.599 28617.4 545.702 28538 522.206Z" fill="#FFF9E2"/>
<rect x="30583.5" width="2184.53" height="801.724" fill="#DECFFF"/>
<path d="M30722.5 522.206C30643.2 498.709 30583.5 528.705 30583.5 528.705V801.534H32768V528.705C32768 528.705 32763.6 530.205 32662.8 587.696C32561.9 645.188 32309.2 574.948 32248.1 531.204C32186.9 487.461 32107 539.267 32030.4 554.321C31953.7 569.375 31902.9 573.086 31815.2 525.455C31727.5 477.825 31650.2 585.718 31521.4 612.062C31392.5 638.407 31350.2 583.947 31263.9 541.953C31177.7 499.959 31120.1 580.032 30994.2 589.316C30868.3 598.599 30801.9 545.702 30722.5 522.206Z" fill="#FFF9E2"/>
</svg>
