<svg width="367" height="508" viewBox="0 0 367 508" fill="none" xmlns="http://www.w3.org/2000/svg">
<rect x="57" y="26" width="26" height="7" fill="#030305"/>
<rect x="40" y="33" width="17" height="9" fill="#030305"/>
<rect x="40" y="42" width="10" height="9" fill="#030305"/>
<rect x="32" y="51" width="9" height="17" fill="#030305"/>
<rect x="23" y="67" width="9" height="17" fill="#030305"/>
<rect x="15" y="84" width="9" height="84" fill="#030305"/>
<rect x="6" y="167" width="9" height="116" fill="#030305"/>
<rect y="283" width="8" height="83" fill="#030305"/>
<rect x="7" y="366" width="8" height="34" fill="#030305"/>
<rect x="15" y="400" width="10" height="16" fill="#030305"/>
<rect x="23" y="416" width="10" height="25" fill="#030305"/>
<rect x="31" y="441" width="9" height="16" fill="#030305"/>
<rect x="40" y="457" width="9" height="17" fill="#030305"/>
<rect x="49" y="474" width="9" height="16" fill="#030305"/>
<rect x="49" y="490" width="17" height="9" fill="#030305"/>
<rect x="65" y="499" width="9" height="9" fill="#030305"/>
<rect x="82" y="17" width="17" height="9" fill="#030305"/>
<rect x="99" y="8" width="34" height="9" fill="#030305"/>
<rect x="132" width="68" height="8" fill="#030305"/>
<rect x="200" y="9" width="42" height="8" fill="#030305"/>
<rect x="242" y="17" width="16" height="9" fill="#030305"/>
<rect x="258" y="25" width="10" height="9" fill="#030305"/>
<rect x="267" y="34" width="8" height="9" fill="#030305"/>
<rect x="275" y="42" width="9" height="8" fill="#030305"/>
<rect x="284" y="50" width="17" height="8" fill="#030305"/>
<rect x="301" y="58" width="17" height="10" fill="#030305"/>
<rect x="308" y="68" width="10" height="7" fill="#030305"/>
<rect x="308" y="75" width="18" height="9" fill="#030305"/>
<rect x="326" y="84" width="9" height="8" fill="#030305"/>
<rect x="335" y="91" width="8" height="18" fill="#030305"/>
<rect x="343" y="108" width="8" height="18" fill="#030305"/>
<rect x="351" y="125" width="9" height="49" fill="#030305"/>
<rect x="351" y="192" width="9" height="41" fill="#030305"/>
<rect x="343" y="233" width="9" height="76" fill="#030305"/>
<rect x="334" y="307" width="9" height="26" fill="#030305"/>
<rect x="325" y="332" width="9" height="51" fill="#030305"/>
<rect x="334" y="424" width="9" height="42" fill="#A09FA7"/>
<rect x="309" y="441" width="25" height="9" fill="#64626F"/>
<rect x="293" y="450" width="41" height="9" fill="#64626F"/>
<rect x="284" y="459" width="50" height="7" fill="#64626F"/>
<rect x="250" y="475" width="17" height="7" fill="#64626F"/>
<rect x="234" y="482" width="33" height="10" fill="#64626F"/>
<rect x="225" y="492" width="42" height="7" fill="#64626F"/>
<rect x="208" y="499" width="59" height="9" fill="#64626F"/>
<rect x="267" y="466" width="76" height="42" fill="#64626F"/>
<rect x="343" y="499" width="8" height="9" fill="#64626F"/>
<rect x="343" y="441" width="8" height="58" fill="#A09FA7"/>
<rect x="351" y="466" width="7" height="33" fill="#A09FA7"/>
<rect x="358" y="476" width="9" height="23" fill="#A09FA7"/>
<rect x="351" y="499" width="16" height="9" fill="#A09FA7"/>
<rect x="325" y="433" width="9" height="8" fill="#A09FA7"/>
<rect x="334" y="381" width="9" height="19" fill="#030305"/>
<rect x="325" y="399" width="9" height="17" fill="#030305"/>
<rect x="334" y="416" width="9" height="8" fill="#030305"/>
<rect x="343" y="424" width="9" height="17" fill="#030305"/>
<rect x="351" y="441" width="9" height="25" fill="#030305"/>
<rect x="358" y="466" width="9" height="10" fill="#030305"/>
<rect x="360" y="174" width="7" height="18" fill="#030305"/>
<rect x="343" y="126" width="8" height="40" fill="#F8F7F7"/>
<rect x="351" y="174" width="9" height="18" fill="#F8F7F7"/>
<rect x="83" y="26" width="33" height="7" fill="#7C695E"/>
<rect x="57" y="33" width="51" height="9" fill="#7C695E"/>
<rect x="50" y="42" width="33" height="9" fill="#7C695E"/>
<rect x="41" y="51" width="25" height="8" fill="#7C695E"/>
<rect x="41" y="59" width="33" height="9" fill="#7C695E"/>
<rect x="32" y="68" width="33" height="9" fill="#7C695E"/>
<rect x="32" y="77" width="18" height="7" fill="#7C695E"/>
<rect x="24" y="84" width="18" height="7" fill="#7C695E"/>
<rect x="24" y="91" width="9" height="10" fill="#7C695E"/>
<rect x="99" y="17" width="34" height="9" fill="#7C695E"/>
<rect x="142" y="8" width="58" height="9" fill="#7C695E"/>
<rect x="217" y="17" width="25" height="9" fill="#7C695E"/>
<rect x="191" y="33" width="10" height="9" fill="#7C695E"/>
<rect x="233" y="26" width="25" height="8" fill="#7C695E"/>
<rect x="241" y="34" width="26" height="9" fill="#7C695E"/>
<rect x="249" y="43" width="26" height="7" fill="#7C695E"/>
<rect x="223" y="50" width="61" height="8" fill="#7C695E"/>
<rect x="233" y="58" width="9" height="10" fill="#7C695E"/>
<rect x="258" y="58" width="43" height="10" fill="#7C695E"/>
<rect x="292" y="68" width="16" height="8" fill="#7D6A60"/>
<rect x="300" y="76" width="8" height="8" fill="#7D6A60"/>
<rect x="317" y="84" width="9" height="8" fill="#7D6A60"/>
<rect x="325" y="92" width="10" height="8" fill="#7D6A60"/>
<rect x="324" y="109" width="10" height="8" fill="#7D6A60"/>
<rect x="317" y="167" width="10" height="10" fill="#7D6A60"/>
<rect x="309" y="159" width="24" height="8" fill="#7D6A60"/>
<rect x="284" y="159" width="18" height="8" fill="#7D6A60"/>
<rect x="267" y="149" width="9" height="10" fill="#7D6A60"/>
<rect x="333" y="117" width="10" height="8" fill="#7D6A60"/>
<rect x="333" y="141" width="10" height="59" fill="#7D6A60"/>
<rect x="343" y="166" width="8" height="67" fill="#7D6A60"/>
<rect x="334" y="109" width="9" height="8" fill="#C8BEB8"/>
<rect x="158" y="17" width="26" height="9" fill="#7C695E"/>
<rect x="133" y="8" width="9" height="9" fill="#B8ACA8"/>
<rect x="133" y="17" width="9" height="9" fill="#786960"/>
<rect x="142" y="17" width="16" height="9" fill="#2C2521"/>
<rect x="184" y="17" width="33" height="9" fill="#2C2521"/>
<rect x="223" y="100" width="112" height="9" fill="#2C2521"/>
<rect x="223" y="109" width="101" height="8" fill="#2C2521"/>
<rect x="223" y="117" width="110" height="8" fill="#2C2521"/>
<rect x="223" y="125" width="120" height="8" fill="#2C2521"/>
<rect x="234" y="133" width="109" height="8" fill="#2C2521"/>
<rect x="240" y="141" width="93" height="8" fill="#2C2521"/>
<rect x="240" y="149" width="27" height="10" fill="#2C2521"/>
<rect x="242" y="159" width="42" height="8" fill="#2C2521"/>
<rect x="250" y="167" width="67" height="10" fill="#2C2521"/>
<rect x="250" y="177" width="83" height="21" fill="#2C2521"/>
<rect x="267" y="198" width="66" height="21" fill="#2C2521"/>
<rect x="267" y="219" width="76" height="10" fill="#2C2521"/>
<rect x="273" y="229" width="70" height="10" fill="#2C2521"/>
<rect x="276" y="239" width="67" height="10" fill="#2C2521"/>
<rect x="276" y="249" width="67" height="8" fill="#2C2521"/>
<rect x="281" y="257" width="62" height="8" fill="#2C2521"/>
<rect x="301" y="282" width="42" height="9" fill="#AB7A6C"/>
<rect x="284" y="291" width="59" height="16" fill="#AB7A6C"/>
<rect x="284" y="307" width="50" height="9" fill="#AB7A6C"/>
<rect x="293" y="316" width="41" height="16" fill="#AB7A6C"/>
<rect x="293" y="332" width="32" height="8" fill="#AB7A6C"/>
<rect x="301" y="340" width="24" height="9" fill="#AB7A6C"/>
<rect x="317" y="274" width="26" height="8" fill="#AB7A6C"/>
<rect x="335" y="265" width="8" height="9" fill="#AB7A6C"/>
<rect x="242" y="199" width="8" height="9" fill="#AB7A6C"/>
<rect x="250" y="216" width="9" height="9" fill="#AB7A6C"/>
<rect x="259" y="233" width="8" height="9" fill="#AB7A6C"/>
<rect x="267" y="257" width="8" height="17" fill="#AB7A6C"/>
<rect x="284" y="316" width="9" height="24" fill="#DFB59F"/>
<rect x="32" y="150" width="193" height="50" fill="#DFB59F"/>
<rect x="225" y="167" width="8" height="82" fill="#DFB59F"/>
<rect x="208" y="258" width="25" height="66" fill="#DFB59F"/>
<rect x="208" y="324" width="9" height="16" fill="#DFB59F"/>
<rect x="167" y="266" width="41" height="75" fill="#DFB59F"/>
<rect x="123" y="274" width="44" height="17" fill="#DFB59F"/>
<rect x="56" y="200" width="86" height="8" fill="#DFB59F"/>
<rect x="15" y="266" width="26" height="25" fill="#DFB59F"/>
<rect x="8" y="299" width="32" height="43" fill="#996B5B"/>
<rect x="33" y="291" width="16" height="8" fill="#996B5B"/>
<rect x="40" y="299" width="9" height="8" fill="#996B5B"/>
<rect x="49" y="282" width="9" height="9" fill="#996B5B"/>
<rect x="40" y="316" width="9" height="16" fill="#996B5B"/>
<rect x="49" y="324" width="9" height="8" fill="#996B5B"/>
<rect x="57" y="332" width="34" height="9" fill="#996B5B"/>
<rect x="73" y="315" width="18" height="17" fill="#996B5B"/>
<rect x="91" y="324" width="58" height="9" fill="#996B5B"/>
<rect x="124" y="333" width="43" height="8" fill="#996B5B"/>
<rect x="75" y="242" width="33" height="7" fill="#996B5B"/>
<rect x="75" y="233" width="33" height="9" fill="#996B57"/>
<rect x="84" y="225" width="32" height="8" fill="#996B57"/>
<rect x="91" y="216" width="25" height="9" fill="#996B57"/>
<rect x="15" y="224" width="8" height="9" fill="#996B57"/>
<rect x="15" y="249" width="8" height="17" fill="#996B57"/>
<rect x="23" y="258" width="9" height="8" fill="#996B57"/>
<rect x="41" y="266" width="16" height="8" fill="#996B57"/>
<rect x="100" y="208" width="25" height="8" fill="#996B57"/>
<rect x="15" y="200" width="41" height="8" fill="#996B57"/>
<rect x="142" y="200" width="8" height="8" fill="#996B57"/>
<rect x="192" y="200" width="8" height="8" fill="#996B57"/>
<rect x="49" y="208" width="17" height="8" fill="#996B57"/>
<rect x="66" y="216" width="8" height="17" fill="#996B57"/>
<rect x="150" y="200" width="42" height="8" fill="#6C4534"/>
<rect x="125" y="208" width="84" height="8" fill="#6C4534"/>
<rect x="183" y="216" width="34" height="8" fill="#6C4534"/>
<rect x="116" y="216" width="41" height="8" fill="#6C4534"/>
<rect x="141" y="224" width="34" height="9" fill="#6C4534"/>
<rect x="141" y="249" width="34" height="9" fill="#6C4534"/>
<rect x="157" y="216" width="26" height="8" fill="#996B57"/>
<rect x="175" y="224" width="33" height="9" fill="#996B57"/>
<rect x="183" y="258" width="25" height="8" fill="#996B57"/>
<rect x="192" y="233" width="25" height="7" fill="#996B57"/>
<rect x="209" y="240" width="16" height="9" fill="#996B57"/>
<rect x="217" y="249" width="16" height="9" fill="#996B57"/>
<rect x="124" y="224" width="17" height="9" fill="#996B57"/>
<rect x="15" y="208" width="34" height="16" fill="#6C4534"/>
<rect x="49" y="216" width="17" height="8" fill="#6C4534"/>
<rect x="57" y="224" width="9" height="9" fill="#492B20"/>
<rect x="183" y="233" width="9" height="25" fill="#492B20"/>
<rect x="175" y="249" width="8" height="17" fill="#492B20"/>
<rect x="192" y="240" width="17" height="18" fill="#492B20"/>
<rect x="209" y="249" width="8" height="9" fill="#492B20"/>
<rect x="116" y="224" width="8" height="9" fill="#492B20"/>
<rect x="108" y="233" width="17" height="33" fill="#492B20"/>
<rect x="91" y="333" width="33" height="8" fill="#492B20"/>
<rect x="40" y="332" width="17" height="9" fill="#492B20"/>
<rect x="25" y="342" width="15" height="32" fill="#492B20"/>
<rect x="40" y="357" width="9" height="10" fill="#492B20"/>
<rect x="40" y="367" width="25" height="15" fill="#492B20"/>
<rect x="74" y="415" width="34" height="17" fill="#492B20"/>
<rect x="108" y="415" width="8" height="10" fill="#492B20"/>
<rect x="82" y="432" width="18" height="8" fill="#492B20"/>
<rect x="32" y="374" width="8" height="8" fill="#492B20"/>
<rect x="32" y="382" width="17" height="26" fill="#492B20"/>
<rect x="25" y="408" width="15" height="8" fill="#492B20"/>
<rect x="33" y="416" width="7" height="25" fill="#492B20"/>
<rect x="40" y="341" width="135" height="8" fill="#492B20"/>
<rect x="65" y="349" width="118" height="8" fill="#492B20"/>
<rect x="74" y="382" width="42" height="9" fill="#F0EFEF"/>
<rect x="65" y="373" width="68" height="9" fill="#F0EFEF"/>
<rect x="65" y="367" width="17" height="6" fill="#F0EFEF"/>
<rect x="82" y="367" width="51" height="6" fill="#F0EFEF"/>
<rect x="150" y="357" width="33" height="8" fill="#492B20"/>
<rect x="150" y="374" width="17" height="8" fill="#492B20"/>
<rect x="116" y="382" width="25" height="9" fill="#492B20"/>
<rect x="133" y="365" width="34" height="9" fill="#362E2E"/>
<rect x="133" y="374" width="17" height="8" fill="#362E2E"/>
<rect x="65" y="382" width="9" height="9" fill="#362E2E"/>
<rect x="167" y="365" width="8" height="76" fill="#492B20"/>
<rect x="158" y="399" width="9" height="26" fill="#492B20"/>
<rect x="125" y="233" width="8" height="7" fill="#492B20"/>
<rect x="125" y="249" width="8" height="17" fill="#492B20"/>
<rect x="133" y="258" width="42" height="8" fill="#492B20"/>
<rect x="66" y="233" width="9" height="8" fill="#492B20"/>
<rect x="32" y="258" width="34" height="8" fill="#492B20"/>
<rect x="23" y="224" width="34" height="9" fill="#6C4534"/>
<rect x="23" y="249" width="26" height="9" fill="#6C4534"/>
<rect x="23" y="233" width="43" height="16" fill="#291107"/>
<rect x="133" y="233" width="50" height="16" fill="#291107"/>
<rect x="125" y="240" width="8" height="9" fill="#291107"/>
<rect x="133" y="249" width="8" height="9" fill="#291107"/>
<rect x="66" y="241" width="9" height="17" fill="#291107"/>
<rect x="49" y="249" width="17" height="9" fill="#291107"/>
<rect x="15" y="241" width="8" height="8" fill="#291107"/>
<rect x="91" y="249" width="17" height="34" fill="#996B5B"/>
<rect x="75" y="249" width="16" height="66" fill="#E7C5BB"/>
<rect x="91" y="283" width="8" height="41" fill="#E7C5BB"/>
<rect x="99" y="299" width="17" height="25" fill="#E7C5BB"/>
<rect x="116" y="308" width="7" height="7" fill="#E7C5BB"/>
<rect x="66" y="266" width="9" height="49" fill="#E7C5BB"/>
<rect x="58" y="282" width="8" height="50" fill="#E7C5BB"/>
<rect x="66" y="315" width="7" height="17" fill="#E7C5BB"/>
<rect x="49" y="299" width="9" height="25" fill="#E7C5BB"/>
<rect x="15" y="233" width="8" height="8" fill="#996B5B"/>
<rect x="108" y="266" width="59" height="8" fill="#996B5B"/>
<rect x="108" y="274" width="15" height="25" fill="#996B5B"/>
<rect x="99" y="283" width="9" height="16" fill="#996B5B"/>
<rect x="123" y="291" width="10" height="33" fill="#996B5B"/>
<rect x="116" y="299" width="7" height="9" fill="#996B5B"/>
<rect x="116" y="315" width="7" height="9" fill="#996B5B"/>
<rect x="133" y="308" width="7" height="16" fill="#996B5B"/>
<rect x="8" y="342" width="17" height="15" fill="#996B5B"/>
<rect x="15" y="357" width="10" height="8" fill="#996B5B"/>
<rect x="25" y="374" width="7" height="34" fill="#996B5B"/>
<rect x="40" y="349" width="25" height="8" fill="#996B5B"/>
<rect x="49" y="357" width="9" height="10" fill="#996B5B"/>
<rect x="58" y="357" width="24" height="10" fill="#EAC4B9"/>
<rect x="82" y="357" width="51" height="10" fill="#E9C4B8"/>
<rect x="133" y="357" width="17" height="8" fill="#996B5B"/>
<rect x="49" y="382" width="8" height="9" fill="#996B5B"/>
<rect x="57" y="382" width="8" height="17" fill="#D89D8F"/>
<rect x="65" y="391" width="68" height="17" fill="#D89D8F"/>
<rect x="141" y="382" width="17" height="9" fill="#D89D8F"/>
<rect x="133" y="391" width="17" height="8" fill="#D89D8F"/>
<rect x="83" y="408" width="33" height="7" fill="#D89D8F"/>
<rect x="15" y="392" width="10" height="8" fill="#996B5B"/>
<rect x="8" y="283" width="7" height="16" fill="#DFB59F"/>
<rect x="15" y="291" width="18" height="8" fill="#DFB59F"/>
<rect x="41" y="274" width="25" height="8" fill="#DFB59F"/>
<rect x="57" y="266" width="9" height="8" fill="#DFB59F"/>
<rect x="66" y="258" width="9" height="8" fill="#DFB59F"/>
<rect x="49" y="291" width="9" height="8" fill="#DFB59F"/>
<rect x="40" y="307" width="9" height="9" fill="#DFB59F"/>
<rect x="8" y="357" width="7" height="9" fill="#DFB59F"/>
<rect x="15" y="365" width="10" height="27" fill="#DFB59F"/>
<rect x="49" y="391" width="8" height="17" fill="#DFB59F"/>
<rect x="57" y="399" width="8" height="9" fill="#DFB59F"/>
<rect x="57" y="408" width="26" height="7" fill="#DFB59F"/>
<rect x="116" y="408" width="33" height="7" fill="#DFB59F"/>
<rect x="133" y="399" width="25" height="9" fill="#DFB59F"/>
<rect x="150" y="391" width="8" height="8" fill="#DFB59F"/>
<rect x="141" y="415" width="17" height="10" fill="#DFB59F"/>
<rect x="57" y="415" width="9" height="43" fill="#DFB59F"/>
<rect x="49" y="424" width="8" height="25" fill="#DFB59F"/>
<rect x="66" y="432" width="8" height="26" fill="#DFB59F"/>
<rect x="74" y="440" width="8" height="18" fill="#DFB59F"/>
<rect x="41" y="282" width="8" height="9" fill="#DFB59F"/>
<rect x="66" y="208" width="34" height="8" fill="#DFB59F"/>
<rect x="74" y="216" width="17" height="9" fill="#DFB59F"/>
<rect x="74" y="225" width="10" height="8" fill="#DFB59F"/>
<rect x="133" y="291" width="34" height="17" fill="#DFB59F"/>
<rect x="140" y="308" width="27" height="16" fill="#DFB59F"/>
<rect x="149" y="324" width="18" height="9" fill="#DFB59F"/>
<rect x="183" y="341" width="25" height="50" fill="#DFB59F"/>
<rect x="175" y="341" width="8" height="8" fill="#DFB59F"/>
<rect x="175" y="374" width="8" height="33" fill="#DFB59F"/>
<rect x="183" y="391" width="17" height="8" fill="#DFB59F"/>
<rect x="183" y="399" width="9" height="8" fill="#DFB59F"/>
<rect x="184" y="407" width="8" height="8" fill="#DFB59F"/>
<rect x="200" y="200" width="25" height="8" fill="#DFB59F"/>
<rect x="209" y="208" width="16" height="8" fill="#DFB59F"/>
<rect x="217" y="216" width="8" height="24" fill="#DFB59F"/>
<rect x="208" y="224" width="9" height="9" fill="#DFB59F"/>
<rect x="233" y="192" width="9" height="141" fill="#DFB59F"/>
<rect x="242" y="208" width="8" height="132" fill="#DFB59F"/>
<rect x="250" y="225" width="9" height="98" fill="#DFB59F"/>
<rect x="259" y="242" width="8" height="32" fill="#DFB59F"/>
<rect x="24" y="175" width="8" height="25" fill="#DFB59F"/>
<rect x="41" y="142" width="50" height="8" fill="#DFB59F"/>
<rect x="65" y="133" width="18" height="9" fill="#DFB59F"/>
<rect x="116" y="142" width="109" height="8" fill="#DFB59F"/>
<rect x="133" y="133" width="83" height="9" fill="#DFB59F"/>
<rect x="133" y="125" width="65" height="8" fill="#DFB59F"/>
<rect x="149" y="116" width="34" height="9" fill="#DFB59F"/>
<rect x="259" y="274" width="25" height="18" fill="#AB7A6C"/>
<rect x="259" y="292" width="25" height="8" fill="#AB7A6C"/>
<rect x="259" y="300" width="9" height="16" fill="#AB7A6C"/>
<rect x="250" y="323" width="9" height="18" fill="#AB7A6C"/>
<rect x="217" y="324" width="16" height="9" fill="#AB7A6C"/>
<rect x="242" y="340" width="8" height="17" fill="#AB7A6C"/>
<rect x="208" y="340" width="9" height="59" fill="#AB7A6C"/>
<rect x="267" y="357" width="8" height="16" fill="#AB7A6C"/>
<rect x="242" y="366" width="25" height="17" fill="#AB7A6C"/>
<rect x="217" y="333" width="25" height="58" fill="#AB7A6C"/>
<rect x="217" y="391" width="8" height="8" fill="#AB7A6C"/>
<rect x="200" y="391" width="8" height="8" fill="#AB7A6C"/>
<rect x="192" y="399" width="8" height="8" fill="#AB7A6C"/>
<rect x="175" y="407" width="9" height="34" fill="#AB7A6C"/>
<rect x="175" y="365" width="8" height="9" fill="#AB7A6C"/>
<rect x="158" y="382" width="9" height="17" fill="#AB7A6C"/>
<rect x="149" y="408" width="9" height="7" fill="#AB7A6C"/>
<rect x="116" y="415" width="25" height="10" fill="#AB7A6C"/>
<rect x="108" y="425" width="59" height="33" fill="#AB7A6C"/>
<rect x="49" y="458" width="101" height="16" fill="#AB7A6C"/>
<rect x="40" y="408" width="17" height="16" fill="#AB7A6C"/>
<rect x="66" y="415" width="8" height="17" fill="#AB7A6C"/>
<rect x="74" y="432" width="8" height="8" fill="#AB7A6C"/>
<rect x="40" y="424" width="9" height="33" fill="#AB7A6C"/>
<rect x="49" y="449" width="8" height="9" fill="#AB7A6C"/>
<rect x="84" y="474" width="57" height="9" fill="#AB7A6C"/>
<rect x="100" y="432" width="8" height="26" fill="#AB7A6C"/>
<rect x="82" y="440" width="18" height="18" fill="#AB7A6C"/>
<rect x="184" y="415" width="8" height="9" fill="#AB7A6C"/>
<rect x="250" y="383" width="17" height="8" fill="#AB7A6C"/>
<rect x="250" y="391" width="9" height="8" fill="#AB7A6C"/>
<rect x="284" y="340" width="9" height="9" fill="#AB7A6C"/>
<rect x="293" y="349" width="8" height="9" fill="#AB7A6C"/>
<rect x="293" y="358" width="16" height="25" fill="#AB7A6C"/>
<rect x="284" y="383" width="34" height="58" fill="#AB7A6C"/>
<rect x="275" y="399" width="9" height="58" fill="#AB7A6C"/>
<rect x="267" y="415" width="9" height="42" fill="#AB7A6C"/>
<rect x="259" y="424" width="8" height="33" fill="#AB7A6C"/>
<rect x="250" y="433" width="9" height="33" fill="#AB7A6C"/>
<rect x="242" y="450" width="8" height="24" fill="#AB7A6C"/>
<rect x="234" y="457" width="8" height="17" fill="#AB7A6C"/>
<rect x="225" y="465" width="9" height="17" fill="#AB7A6C"/>
<rect x="217" y="474" width="8" height="8" fill="#AB7A6C"/>
<rect x="208" y="474" width="9" height="8" fill="#AB7A6C"/>
<rect x="200" y="482" width="17" height="8" fill="#AB7A6C"/>
<rect x="191" y="491" width="9" height="8" fill="#AB7A6C"/>
<rect x="183" y="499" width="8" height="9" fill="#AB7A6C"/>
<rect x="284" y="441" width="25" height="9" fill="#AB7A6C"/>
<rect x="318" y="392" width="7" height="49" fill="#AB7A6C"/>
<rect x="325" y="424" width="9" height="17" fill="#AB7A6C"/>
<rect x="326" y="383" width="8" height="16" fill="#AB7A6C"/>
<rect x="325" y="392" width="1" height="7" fill="#AB7A6C"/>
<rect x="275" y="316" width="9" height="67" fill="#AB7A6C"/>
<rect x="268" y="300" width="16" height="16" fill="#472B20"/>
<rect x="259" y="316" width="16" height="41" fill="#472B20"/>
<rect x="250" y="341" width="8" height="16" fill="#472B20"/>
<rect x="242" y="357" width="25" height="9" fill="#472B20"/>
<rect x="267" y="373" width="8" height="26" fill="#472B20"/>
<rect x="200" y="399" width="59" height="25" fill="#472B20"/>
<rect x="184" y="424" width="42" height="25" fill="#472B20"/>
<rect x="167" y="441" width="17" height="32" fill="#472B20"/>
<rect x="150" y="458" width="17" height="24" fill="#472B20"/>
<rect x="141" y="473" width="9" height="17" fill="#472B20"/>
<rect x="58" y="483" width="83" height="7" fill="#472B20"/>
<rect x="58" y="474" width="26" height="9" fill="#472B20"/>
<rect x="66" y="490" width="50" height="9" fill="#472B20"/>
<rect x="74" y="499" width="34" height="9" fill="#472B20"/>
<rect x="184" y="449" width="7" height="16" fill="#472B20"/>
<rect x="191" y="449" width="26" height="8" fill="#472B20"/>
<rect x="241" y="442" width="9" height="8" fill="#472B20"/>
<rect x="226" y="450" width="16" height="7" fill="#472B20"/>
<rect x="217" y="457" width="17" height="8" fill="#472B20"/>
<rect x="191" y="465" width="34" height="9" fill="#472B20"/>
<rect x="183" y="473" width="8" height="26" fill="#472B20"/>
<rect x="167" y="482" width="16" height="26" fill="#472B20"/>
<rect x="150" y="491" width="17" height="17" fill="#472B20"/>
<rect x="117" y="499" width="33" height="9" fill="#472B20"/>
<rect x="191" y="474" width="9" height="17" fill="#472B20"/>
<rect x="200" y="474" width="8" height="8" fill="#472B20"/>
<rect x="225" y="391" width="25" height="8" fill="#472B20"/>
<rect x="242" y="383" width="8" height="8" fill="#472B20"/>
<path d="M259 391H267V415H259V391Z" fill="#472B20"/>
<path d="M192 407H200V424H192V407Z" fill="#472B20"/>
<path d="M226 424H241V441H226V424Z" fill="#472B20"/>
<path d="M241 424H250V433H241V424Z" fill="#472B20"/>
<rect x="284" y="281" width="8" height="10" fill="#AB7A6C"/>
<rect x="284" y="281" width="8" height="10" fill="#AB7A6C"/>
<rect x="183" y="116" width="25" height="9" fill="#AB7A6C"/>
<rect x="116" y="116" width="33" height="9" fill="#AB7A6C"/>
<rect x="91" y="125" width="42" height="8" fill="#AB7A6C"/>
<rect x="83" y="133" width="50" height="9" fill="#AB7A6C"/>
<rect x="91" y="142" width="25" height="8" fill="#AB7A6C"/>
<rect x="198" y="125" width="19" height="8" fill="#AB7A6C"/>
<rect x="216" y="133" width="9" height="9" fill="#AB7A6C"/>
<rect x="225" y="141" width="9" height="26" fill="#AB7A6C"/>
<rect x="233" y="167" width="9" height="25" fill="#AB7A6C"/>
<rect x="285" y="265" width="32" height="8" fill="#2C2521"/>
<rect x="292" y="273" width="9" height="8" fill="#2C2521"/>
<rect x="333" y="200" width="10" height="19" fill="#2C2521"/>
<rect x="259" y="198" width="8" height="16" fill="#2C2521"/>
<rect x="327" y="167" width="6" height="10" fill="#2C2521"/>
<rect x="302" y="159" width="7" height="8" fill="#2C2521"/>
<rect x="276" y="149" width="57" height="10" fill="#2C2521"/>
<rect x="223" y="92" width="102" height="8" fill="#2C2521"/>
<rect x="223" y="84" width="94" height="8" fill="#2C2521"/>
<rect x="223" y="76" width="77" height="8" fill="#2C2521"/>
<rect x="223" y="68" width="69" height="8" fill="#2C2521"/>
<rect x="116" y="26" width="107" height="7" fill="#2C2521"/>
<rect x="108" y="33" width="83" height="9" fill="#2C2521"/>
<rect x="66" y="51" width="17" height="8" fill="#2C2521"/>
<rect x="74" y="59" width="9" height="9" fill="#2C2521"/>
<rect x="42" y="84" width="8" height="7" fill="#2C2521"/>
<rect x="24" y="125" width="8" height="7" fill="#2C2521"/>
<rect x="24" y="132" width="8" height="16" fill="#2C2521"/>
<rect x="15" y="168" width="9" height="7" fill="#2C2521"/>
<rect x="83" y="109" width="8" height="7" fill="#2C2521"/>
<rect x="91" y="109" width="25" height="7" fill="#221A17"/>
<rect x="66" y="116" width="23" height="9" fill="#221A17"/>
<rect x="32" y="125" width="33" height="7" fill="#221A17"/>
<rect x="32" y="132" width="33" height="10" fill="#261109"/>
<rect x="32" y="142" width="9" height="8" fill="#261109"/>
<rect x="24" y="148" width="8" height="27" fill="#261109"/>
<rect x="15" y="175" width="9" height="25" fill="#261109"/>
<rect x="65" y="125" width="26" height="8" fill="#261109"/>
<rect x="89" y="116" width="27" height="9" fill="#261109"/>
<rect x="116" y="109" width="101" height="7" fill="#261109"/>
<rect x="208" y="116" width="9" height="9" fill="#261109"/>
<rect x="217" y="120" width="6" height="13" fill="#261109"/>
<rect x="225" y="133" width="9" height="8" fill="#261109"/>
<rect x="234" y="141" width="6" height="26" fill="#261109"/>
<rect x="242" y="167" width="8" height="32" fill="#261109"/>
<rect x="250" y="198" width="9" height="18" fill="#261109"/>
<rect x="259" y="214" width="8" height="19" fill="#261109"/>
<rect x="267" y="239" width="9" height="18" fill="#261109"/>
<rect x="275" y="257" width="6" height="17" fill="#261109"/>
<rect x="281" y="273" width="3" height="1" fill="#261109"/>
<rect x="284" y="273" width="8" height="8" fill="#261109"/>
<rect x="292" y="281" width="9" height="10" fill="#261109"/>
<rect x="293" y="340" width="8" height="9" fill="#261109"/>
<rect x="318" y="383" width="8" height="9" fill="#261109"/>
<rect x="301" y="349" width="24" height="9" fill="#261109"/>
<rect x="309" y="358" width="16" height="25" fill="#261109"/>
<rect x="325" y="416" width="9" height="8" fill="#261109"/>
<rect x="284" y="450" width="9" height="9" fill="#261109"/>
<rect x="259" y="457" width="25" height="9" fill="#261109"/>
<rect x="250" y="466" width="17" height="9" fill="#261109"/>
<rect x="233" y="474" width="17" height="8" fill="#261109"/>
<rect x="217" y="482" width="17" height="10" fill="#261109"/>
<rect x="200" y="490" width="17" height="9" fill="#261109"/>
<rect x="191" y="499" width="17" height="9" fill="#261109"/>
<rect x="217" y="492" width="8" height="7" fill="#261109"/>
<rect x="284" y="349" width="9" height="34" fill="#261109"/>
<rect x="275" y="383" width="9" height="16" fill="#261109"/>
<rect x="275" y="383" width="9" height="16" fill="#260E07"/>
<rect x="267" y="399" width="8" height="16" fill="#260E07"/>
<rect x="259" y="415" width="8" height="9" fill="#260E07"/>
<rect x="250" y="424" width="9" height="9" fill="#260E07"/>
<rect x="241" y="433" width="9" height="9" fill="#260E07"/>
<rect x="226" y="441" width="15" height="9" fill="#260E07"/>
<rect x="217" y="449" width="9" height="8" fill="#260E07"/>
<rect x="191" y="457" width="26" height="8" fill="#260E07"/>
<rect x="184" y="465" width="7" height="8" fill="#260E07"/>
<rect x="167" y="473" width="16" height="9" fill="#260E07"/>
<rect x="150" y="482" width="17" height="9" fill="#260E07"/>
<rect x="116" y="490" width="34" height="9" fill="#260E07"/>
<rect x="108" y="499" width="9" height="9" fill="#260E07"/>
<rect x="301" y="273" width="16" height="9" fill="#261109"/>
<rect x="317" y="265" width="18" height="9" fill="#261109"/>
<rect x="281" y="265" width="4" height="8" fill="#261109"/>
<rect x="267" y="229" width="6" height="10" fill="#261109"/>
<rect x="240" y="159" width="2" height="8" fill="#261109"/>
<rect x="65" y="68" width="18" height="9" fill="#2C2521"/>
<rect x="24" y="116" width="42" height="9" fill="#2C2521"/>
<rect x="33" y="91" width="17" height="10" fill="#2C2521"/>
<rect x="24" y="101" width="26" height="15" fill="#2C2521"/>
<rect x="83" y="100" width="125" height="9" fill="#2C2521"/>
<rect x="50" y="77" width="33" height="39" fill="#2C2521"/>
<rect x="83" y="42" width="140" height="58" fill="#2C2521"/>
<rect x="201" y="33" width="22" height="9" fill="#2C2521"/>
<rect x="242" y="58" width="16" height="10" fill="#2C2521"/>
<rect x="223" y="58" width="10" height="10" fill="#2C2521"/>
<rect x="208" y="100" width="15" height="9" fill="#2C2521"/>
<rect x="217" y="109" width="6" height="11" fill="#2C2521"/>
<rect x="223" y="40" width="18" height="10" fill="#2C2521"/>
<rect x="241" y="43" width="8" height="7" fill="#2C2521"/>
<rect x="223" y="34" width="18" height="6" fill="#2C2521"/>
<rect x="223" y="26" width="10" height="8" fill="#2C2521"/>
</svg>
